<?xml version="1.0" encoding="utf-8"?>
<!-- Generator: Adobe Illustrator 23.0.6, SVG Export Plug-In . SVG Version: 6.00 Build 0)  -->
<svg version="1.1" id="Capa_1" xmlns="http://www.w3.org/2000/svg" xmlns:xlink="http://www.w3.org/1999/xlink" x="0px" y="0px"
	 viewBox="0 0 512 512" style="enable-background:new 0 0 512 512;" xml:space="preserve">
<style type="text/css">
	.st0{fill:#CD1610;}
</style>
<g>
	<path class="st0" d="M431.2,194.7V175c0-47.1-16.7-90.9-46.9-123.4C353.3,18.3,310.7,0,264.2,0H248c-46.5,0-89.1,18.3-120,51.6
		C97.7,84.1,81,127.9,81,175v19.7c-36.7,2.5-65.8,33-65.8,70.3v30.8c0,38.8,31.6,70.5,70.5,70.5h39.7c7.1,0,12.9-5.8,12.9-12.9v-146
		c0-7.1-5.8-12.9-12.9-12.9h-18.5V175c0-85.1,60.7-149.2,141-149.2h16.2c80.5,0,141,64.1,141,149.2v19.5h-18.5
		c-7.1,0-12.9,5.8-12.9,12.9v145.9c0,7.1,5.8,12.9,12.9,12.9h18.1c-5.3,67.3-51.6,82.9-73.1,86.5c-5.9-18.2-23-31.3-43.1-31.3h-32.3
		c-25,0-45.3,20.3-45.3,45.3c0,25,20.3,45.4,45.3,45.4h32.4c20.9,0,38.4-14.2,43.7-33.3c10.5-1.5,27.2-5.3,43.8-15
		c23.3-13.7,51-41.5,54.6-97.7c36.9-2.3,66.2-32.9,66.2-70.3v-30.8C496.9,227.7,467.8,197.1,431.2,194.7z M112.7,340.3H85.9
		c-24.6,0-44.6-20-44.6-44.6v-30.8c0-24.6,20-44.6,44.6-44.6h26.8V340.3z M288.5,486.2h-32.4c-10.8,0-19.5-8.7-19.5-19.5
		c0-10.8,8.7-19.5,19.5-19.5h32.4c10.8,0,19.5,8.7,19.5,19.5C308,477.5,299.3,486.2,288.5,486.2z M471.1,295.7
		c0,24.6-20,44.6-44.6,44.6h-26.8v-120h26.8c24.6,0,44.6,20,44.6,44.6V295.7z"/>
</g>
</svg>
