<?xml version="1.0" encoding="utf-8"?>
<!-- Generator: Adobe Illustrator 23.0.6, SVG Export Plug-In . SVG Version: 6.00 Build 0)  -->
<svg version="1.1" id="Capa_1" xmlns="http://www.w3.org/2000/svg" xmlns:xlink="http://www.w3.org/1999/xlink" x="0px" y="0px"
	 viewBox="0 0 512 512" style="enable-background:new 0 0 512 512;" xml:space="preserve">
<style type="text/css">
	.st0{fill:#CD1610;}
</style>
<g>
	<path class="st0" d="M486.5,441.9H144.1c-14.1,0-25.5-11.4-25.5-25.5s11.4-25.5,25.5-25.5h342.4c14.1,0,25.5,11.4,25.5,25.5
		S500.6,441.9,486.5,441.9z"/>
	<path class="st0" d="M486.5,281.6H144.1c-14.1,0-25.5-11.4-25.5-25.5c0-14.1,11.4-25.5,25.5-25.5h342.4c14.1,0,25.5,11.4,25.5,25.5
		C512,270.1,500.6,281.6,486.5,281.6z"/>
	<path class="st0" d="M486.5,121.2H144.1c-14.1,0-25.5-11.4-25.5-25.5s11.4-25.5,25.5-25.5h342.4c14.1,0,25.5,11.4,25.5,25.5
		S500.6,121.2,486.5,121.2z"/>
	<circle class="st0" cx="34.3" cy="97.6" r="34.3"/>
	<circle class="st0" cx="34.3" cy="256" r="34.3"/>
	<circle class="st0" cx="34.3" cy="414.4" r="34.3"/>
</g>
</svg>
