<?xml version="1.0" encoding="utf-8"?>
<!-- Generator: Adobe Illustrator 23.0.6, SVG Export Plug-In . SVG Version: 6.00 Build 0)  -->
<svg version="1.1" id="Capa_1" xmlns="http://www.w3.org/2000/svg" xmlns:xlink="http://www.w3.org/1999/xlink" x="0px" y="0px"
	 viewBox="0 0 512 512" style="enable-background:new 0 0 512 512;" xml:space="preserve">
<style type="text/css">
	.st0{fill:#CD1610;}
</style>
<g>
	<g>
		<path class="st0" d="M273.2,321.4H244c-10.6,0-19.3-8.6-19.3-19.3s8.6-19.3,19.3-19.3h51.5c7,0,12.8-5.7,12.8-12.8
			c0-7-5.7-12.8-12.8-12.8h-24.2v-17.8c0-7-5.7-12.8-12.8-12.8c-7,0-12.8,5.7-12.8,12.8v17.8H244c-24.7,0-44.8,20.1-44.8,44.8
			s20.1,44.8,44.8,44.8h29.3c10.6,0,19.3,8.6,19.3,19.3c0,10.6-8.6,19.3-19.3,19.3h-52.5c-7,0-12.8,5.7-12.8,12.8
			c0,7,5.7,12.8,12.8,12.8h25.1v18.2c0,7,5.7,12.8,12.8,12.8c7,0,12.8-5.7,12.8-12.8V411h2.1c0.1,0,0.2,0,0.3,0
			c24.5-0.3,44.2-20.3,44.2-44.8C318.1,341.5,297.9,321.4,273.2,321.4z"/>
		<path class="st0" d="M450.6,292.4c-13.4-30.9-31.9-60.8-55.4-88.8c-28.3-34.1-56.5-56.8-70.9-67.4l54.3-100.7
			c2.7-5,1.8-11.2-2.3-15.1C362.2,6.7,347.3,0,330.7,0c-15.2,0-29.2,5.7-41.3,10.9c-9.6,3.9-18.6,7.8-26,7.8c-2.2,0-4.2-0.3-6.1-1.1
			c-25.3-9.3-44.8-15-63.7-15c-23.8,0-44.2,9.6-64.1,30c-4.2,4.3-4.8,11-1.5,16l58.5,88.5c-14.5,10.8-42.2,33.3-69.9,66.6
			c-23.3,28-41.9,57.9-55.4,88.8c-16.8,38.9-25.3,79.4-25.3,120.5c0,54.6,44.5,99.1,99.1,99.1h241.6c54.6,0,99.1-44.5,99.1-99.1
			C475.9,371.8,467.4,331.3,450.6,292.4z M155.4,43.2c12.3-10.6,24.2-15.3,38.3-15.3c15.1,0,32.1,5.1,54.8,13.5
			c4.7,1.7,9.7,2.6,14.8,2.6c12.5,0,24.4-4.9,35.8-9.7c11-4.6,21.4-8.9,31.5-8.9c4.9,0,11.8,0.9,20.5,7l-51.1,94.9h-89L155.4,43.2z
			 M376.8,486.5H135.2c-40.6,0-73.6-33-73.6-73.6c0-68.2,25-132.9,74.2-192.3c31.1-37.6,62.7-60.9,72.3-67.7h95.6
			c9.7,6.7,41.2,30.1,72.3,67.7c49.3,59.4,74.2,124,74.2,192.3C450.4,453.5,417.4,486.5,376.8,486.5z"/>
	</g>
</g>
</svg>
