<?xml version="1.0" encoding="utf-8"?>
<!-- Generator: Adobe Illustrator 23.0.6, SVG Export Plug-In . SVG Version: 6.00 Build 0)  -->
<svg version="1.1" id="Capa_1" xmlns="http://www.w3.org/2000/svg" xmlns:xlink="http://www.w3.org/1999/xlink" x="0px" y="0px"
	 viewBox="0 0 512 512" style="enable-background:new 0 0 512 512;" xml:space="preserve">
<style type="text/css">
	.st0{fill:#CD1610;}
</style>
<g>
	<path class="st0" d="M464.8,261.7h-33.1c-9.9-21.2-25.3-40.4-45.1-56.2c-0.4-23.5-2.1-41.4-5.1-54.5c-4.7-20.3-13.7-30.6-26.6-30.6
		c-14.1,0-44.1,17.6-67.2,43.6c-10.4-1.5-21-2.2-31.6-2.2c-49.9,0-96.9,16-132.3,45.1c-32.2,26.4-51.4,60.6-55.3,97.7
		c-14.4-4.8-24.9-18.4-24.9-34.4c0-6.7-5.4-12.1-12.1-12.1s-12.1,5.4-12.1,12.1c0,29.3,21,53.8,48.8,59.2
		c3.2,38.5,23.5,74.7,56.8,101.6l-10.4,58.8c-0.6,3.2,0.2,6.4,2,9c1.8,2.6,4.6,4.4,7.8,5l45.2,8c3.2,0.6,6.4-0.2,9-2
		c2.6-1.8,4.4-4.6,5-7.8l6.5-36.8c21,6.5,43.2,9.9,66,9.9c22.8,0,44.9-3.3,66-9.9l6.5,36.8c0.6,3.2,2.3,6,5,7.8
		c2,1.4,4.5,2.2,6.9,2.2c0.7,0,1.4-0.1,2.1-0.2l45.2-8c6.6-1.2,11-7.4,9.8-14L387.2,431c19.5-15.7,34.8-34.8,44.6-55.8h33.1
		c15.2,0,27.6-12.4,27.6-27.6v-58.2C492.5,274.1,480.1,261.7,464.8,261.7z M464.8,351.1h-41c-5,0-9.4,3-11.2,7.6
		c-8.7,22-24.5,41.8-45.7,57.5c-3.7,2.7-5.5,7.3-4.7,11.8l9.5,54.1l-21.4,3.8l-6.9-38.9c-0.6-3.6-2.8-6.7-6-8.4
		c-3.2-1.8-6.9-2-10.3-0.7c-22.3,8.7-46.2,13-71,13c-24.9,0-48.8-4.4-71-13c-3.4-1.3-7.1-1-10.3,0.7c-3.1,1.8-5.3,4.9-6,8.4
		l-6.9,38.9l-21.4-3.8l9.5-54.1c0.8-4.5-1-9.1-4.7-11.8c-34-25.1-53.5-60.7-53.5-97.8C92,245.4,165.6,186,256.1,186
		c11.5,0,23.1,1,34.3,2.9c4.3,0.7,8.6-0.9,11.4-4.3c19.1-23.4,43.8-37.8,51.9-39.8c2.1,3,8.4,16.3,8.8,66.8c0,3.8,1.8,7.3,4.9,9.6
		c20.9,15.6,36.5,35.3,45.1,57.1c1.8,4.6,6.3,7.6,11.2,7.6h41c1.9,0,3.5,1.6,3.5,3.5v5.4h-1c-6.7,0-12.1,5.4-12.1,12.1
		c0,6.7,5.4,12.1,12.1,12.1h1v28.6C468.3,349.5,466.8,351.1,464.8,351.1z"/>
	<path class="st0" d="M256.1,129.2c35.6,0,64.6-29,64.6-64.6S291.8,0,256.1,0s-64.6,29-64.6,64.6S220.5,129.2,256.1,129.2z
		 M256.1,24.1c22.3,0,40.4,18.1,40.4,40.4S278.5,105,256.1,105c-22.3,0-40.4-18.1-40.4-40.4S233.8,24.1,256.1,24.1z"/>
	<path class="st0" d="M303.4,214.5c-15.1-4.8-31-7.2-47.2-7.2c-16.3,0-32.1,2.4-47.2,7.2c-6.4,2-9.9,8.8-7.9,15.2
		c2,6.4,8.8,9.9,15.2,7.9c12.7-4,26.1-6.1,39.9-6.1s27.2,2,39.9,6.1c1.2,0.4,2.4,0.6,3.7,0.6c5.1,0,9.9-3.3,11.5-8.4
		C313.3,223.3,309.7,216.5,303.4,214.5z"/>
</g>
</svg>
