<?xml version="1.0" encoding="utf-8"?>
<!-- Generator: Adobe Illustrator 23.0.6, SVG Export Plug-In . SVG Version: 6.00 Build 0)  -->
<svg version="1.1" id="Layer_1" xmlns="http://www.w3.org/2000/svg" xmlns:xlink="http://www.w3.org/1999/xlink" x="0px" y="0px"
	 viewBox="0 0 512 512" style="enable-background:new 0 0 512 512;" xml:space="preserve">
<style type="text/css">
	.st0{fill:#FFFFFF;}
</style>
<g>
	<g>
		<g>
			<rect x="133.6" y="150.3" class="st0" width="244.9" height="22.3"/>
			<rect x="356.2" y="183.7" class="st0" width="22.3" height="22.3"/>
			<rect x="133.6" y="183.7" class="st0" width="22.3" height="22.3"/>
			<rect x="244.9" y="77.9" class="st0" width="22.3" height="22.3"/>
			<rect x="278.3" y="77.9" class="st0" width="22.3" height="22.3"/>
			<rect x="211.5" y="77.9" class="st0" width="22.3" height="22.3"/>
			<rect x="178.1" y="77.9" class="st0" width="22.3" height="22.3"/>
			<rect x="311.7" y="77.9" class="st0" width="22.3" height="22.3"/>
			<path class="st0" d="M459.5,479.9c-9.8,5.2-18.2,9.7-35.9,9.8l65.6-196.8c1.8-5.4-0.8-11.3-6-13.7L423,252.1V144.7
				c0-18.4-15-33.4-33.4-33.4h-16.7V55.7c0-6.1-5-11.1-11.1-11.1h-94.6V0h-22.3v44.5h-94.6c-6.1,0-11.1,5-11.1,11.1v55.7h-16.7
				c-18.4,0-33.4,15-33.4,33.4v107.4l-60.2,27.1c-5.2,2.3-7.8,8.3-6,13.7l65.6,196.8c-17.7-0.1-26.1-4.6-35.9-9.8
				c-10.9-5.8-23.3-12.4-47-12.4v22.3c18.1,0,26.6,4.6,36.5,9.8C53,505.4,65.4,512,89,512c6.3,0,11.6-0.4,16.3-1.3
				c13.7-2.1,22.7-7,30.7-11.2c9.9-5.3,18.4-9.8,36.4-9.8c18.1,0,26.6,4.6,36.5,9.8c10.9,5.8,23.3,12.4,47,12.4s36-6.6,47-12.4
				c9.9-5.3,18.4-9.8,36.5-9.8c18.1,0,26.6,4.5,36.5,9.8c8,4.2,17,9.1,30.8,11.2c4.7,0.9,10.1,1.3,16.3,1.3c23.7,0,36-6.6,47-12.4
				c9.9-5.3,18.4-9.8,36.5-9.8v-22.3C482.8,467.5,470.4,474.1,459.5,479.9z M464.9,295.4l-8,23.9l-189.8-87.2v-25.7L464.9,295.4z
				 M161.4,66.8h189.2v44.5H161.4V66.8z M111.3,144.7c0-6.1,5-11.1,11.1-11.1h27.8h211.5h27.8c6.1,0,11.1,5,11.1,11.1v97.4
				l-140.1-63.1c-2.9-1.3-6.2-1.3-9.1,0l-140.1,63.1L111.3,144.7L111.3,144.7z M47.1,295.4l197.7-89v25.7L55.1,319.4L47.1,295.4z
				 M401.1,486.6c-5.4-1.8-9.9-4.1-14.8-6.7c-10.9-5.8-23.3-12.4-47-12.4c-23.7,0-36,6.6-47,12.4c-9.9,5.3-18.4,9.8-36.5,9.8
				s-26.6-4.6-36.5-9.8c-10.9-5.8-23.3-12.4-47-12.4c-23.6,0-35.9,6.6-46.9,12.4c-4.9,2.6-9.3,5-14.7,6.7l-48.7-146l182.7-83.9
				v132.9h22.3V256.7l182.7,83.9L401.1,486.6z"/>
		</g>
	</g>
</g>
</svg>
