<?xml version="1.0" encoding="utf-8"?>
<!-- Generator: Adobe Illustrator 23.0.6, SVG Export Plug-In . SVG Version: 6.00 Build 0)  -->
<svg version="1.1" id="Layer_1" xmlns="http://www.w3.org/2000/svg" xmlns:xlink="http://www.w3.org/1999/xlink" x="0px" y="0px"
	 viewBox="0 0 512 512" style="enable-background:new 0 0 512 512;" xml:space="preserve">
<style type="text/css">
	.st0{fill:#124958;}
</style>
<title></title>
<g id="User">
	<path class="st0" d="M330,264.3c57.7-40.8,71.4-120.7,30.5-178.4S239.7,14.5,182,55.3s-71.4,120.7-30.5,178.4
		c8.4,11.8,18.7,22.1,30.5,30.5C93.2,290.2,32.1,371.5,32,464c0,8.8,7.2,16,16,16h416c8.8,0,16-7.2,16-16
		C479.9,371.5,418.8,290.2,330,264.3z M160,160c0-53,43-96,96-96s96,43,96,96s-43,96-96,96C203,255.9,160.1,213,160,160z M64.7,448
		C73.1,357.4,149,288.1,240,288h32c91,0.1,166.9,69.4,175.3,160H64.7z"/>
</g>
</svg>
